<svg xmlns="http://www.w3.org/2000/svg" xmlns:xlink="http://www.w3.org/1999/xlink" width="57.004" height="55.165" viewBox="0 0 57.004 55.165">
  <defs>
    <linearGradient id="linear-gradient" x1="-0.045" y1="-8.104" x2="0.954" y2="-8.104" gradientUnits="objectBoundingBox">
      <stop offset="0" stop-color="#6d90f6"/>
      <stop offset="1" stop-color="#4ca9f4"/>
    </linearGradient>
    <linearGradient id="linear-gradient-2" x1="0.001" y1="0.5" x2="1.001" y2="0.5" gradientUnits="objectBoundingBox">
      <stop offset="0" stop-color="#4baaf5"/>
      <stop offset="1" stop-color="#6d91f6"/>
    </linearGradient>
  </defs>
  <g id="quick_icon6" transform="translate(6736 9898)">
    <rect id="화면_캡처_2024-07-22_214537" data-name="화면 캡처 2024-07-22 214537" width="57.005" height="55.165" transform="translate(-6736 -9898)" fill="none"/>
    <g id="그룹_193" data-name="그룹 193" transform="translate(-6736.045 -9896.069)">
      <path id="패스_132" data-name="패스 132" d="M17.12,26.49s-2.3-2.3-6.81-1.05c0,0-4.13,1.04-3.1,6.61,0,0,.41,5.57,4.87,8.25,0,0,3.18,1.34,5.03-1.03,0,0,2.27,2.06,4.75,1.29,0,0,1.65-.67,3.51-3.56a13.608,13.608,0,0,0,2.06-7.63s0-3.03-3.71-4.3C23.72,25.07,18.77,24.03,17.12,26.49Z" fill="none" stroke="#fff" stroke-miterlimit="10" stroke-width="3"/>
      <path id="패스_133" data-name="패스 133" d="M17.13,25.82s-.2-6.86,4.99-8.13c0,0,.49-.39,2.54,0,0,0,.49,3.03-.78,4.5C23.88,22.19,23,24.17,17.13,25.82Z" fill="none" stroke="#fff" stroke-linecap="round" stroke-linejoin="round" stroke-width="3"/>
      <path id="패스_134" data-name="패스 134" d="M17.13,25.82s.1-6.86-3.82-8.91a6.485,6.485,0,0,0-4.3,0s-.37,2.03,1.88,4.28a26.128,26.128,0,0,0,2.83,1.93s2.92,1.34,3.41,2.7Z" fill="none" stroke="#fff" stroke-linecap="round" stroke-linejoin="round" stroke-width="3"/>
      <path id="패스_135" data-name="패스 135" d="M24.65,27.75a11.858,11.858,0,1,0,2.88-16.52,11.852,11.852,0,0,0-2.88,16.52Zm16.5-11.6a8.312,8.312,0,1,1-11.58-2.02A8.307,8.307,0,0,1,41.15,16.15Z" fill="url(#linear-gradient)"/>
      <path id="패스_136" data-name="패스 136" d="M40.06,31.32A27.727,27.727,0,0,0,41.68,36l2.84,4.73a3.98,3.98,0,0,0,4.6,1.56,3.4,3.4,0,0,0,1.22-4.73L46.2,32.79a10.413,10.413,0,0,0-4.08-2.91l-2.06,1.44Z" fill="#fff"/>
      <circle id="타원_29" data-name="타원 29" cx="8.32" cy="8.32" r="8.32" transform="translate(26.03 12.61)" fill="#fff"/>
      <g id="그룹_192" data-name="그룹 192">
        <path id="패스_137" data-name="패스 137" d="M33.33,20.76a9.642,9.642,0,0,0-3.64-1.19,26.8,26.8,0,0,0,4.01,5.28,56.768,56.768,0,0,0,5.28-7.29,6.243,6.243,0,0,0-5.66,3.2Z" fill="url(#linear-gradient-2)"/>
      </g>
    </g>
  </g>
</svg>
